<svg width="25" height="25" viewBox="0 0 25 25" fill="none" xmlns="http://www.w3.org/2000/svg">
<g clip-path="url(#clip0_194_31)">
<path fill-rule="evenodd" clip-rule="evenodd" d="M12.5 0C5.59644 0 0 5.59644 0 12.5C0 19.4036 5.59644 25 12.5 25C19.4036 25 25 19.4036 25 12.5C25 5.59644 19.4036 0 12.5 0ZM21.1436 5.53187L18.2064 19.6602C18.1372 19.9938 17.746 20.1449 17.4701 19.9444L13.4604 17.0334C13.217 16.8566 12.8851 16.866 12.6521 17.056L10.429 18.8681C10.171 19.0791 9.78225 18.9615 9.68346 18.6438L9.40376 17.7443C8.60652 15.1803 6.66729 13.1299 4.15176 12.191C3.74665 12.0393 3.74319 11.4674 4.14714 11.3118L20.5143 4.99775C20.8613 4.86357 21.2192 5.16753 21.1436 5.53187Z" fill="#BDBDBD"/>
<path fill-rule="evenodd" clip-rule="evenodd" d="M17.229 8.08668L9.43483 12.8871C9.13609 13.0714 8.99549 13.4322 9.09186 13.7699L9.93455 16.731C9.9945 16.9407 10.2989 16.9193 10.3281 16.7026L10.5471 15.0788C10.5885 14.7731 10.7342 14.4912 10.9604 14.2809L17.3927 8.30162C17.5132 8.19009 17.369 8.00069 17.229 8.08668Z" fill="#BDBDBD"/>
</g>
<defs>
<clipPath id="clip0_194_31">
<rect width="25" height="25" fill="white"/>
</clipPath>
</defs>
</svg>
