<svg width="25" height="25" viewBox="0 0 25 25" fill="none" xmlns="http://www.w3.org/2000/svg">
<g clip-path="url(#clip0_194_23)">
<path fill-rule="evenodd" clip-rule="evenodd" d="M12.4628 0C5.57117 0 0 5.61224 0 12.5554C0 18.1054 3.56964 22.8033 8.52168 24.4661C9.14082 24.5911 9.3676 24.1959 9.3676 23.8635C9.3676 23.5724 9.34719 22.5747 9.34719 21.5352C5.88036 22.2837 5.15842 20.0385 5.15842 20.0385C4.60128 18.5834 3.77577 18.2094 3.77577 18.2094C2.64107 17.4403 3.85842 17.4403 3.85842 17.4403C5.11709 17.5235 5.77755 18.7291 5.77755 18.7291C6.89158 20.6413 8.68673 20.101 9.40893 19.7684C9.51199 18.9577 9.84235 18.3964 10.1931 18.0847C7.42806 17.7936 4.51888 16.7128 4.51888 11.8901C4.51888 10.5181 5.01378 9.39566 5.79796 8.5227C5.67423 8.21097 5.24082 6.92194 5.92194 5.19668C5.92194 5.19668 6.97423 4.86403 9.34694 6.48546C10.3628 6.21063 11.4104 6.07082 12.4628 6.06964C13.5151 6.06964 14.5878 6.21531 15.5783 6.48546C17.9513 4.86403 19.0036 5.19668 19.0036 5.19668C19.6847 6.92194 19.251 8.21097 19.1273 8.5227C19.9321 9.39566 20.4066 10.5181 20.4066 11.8901C20.4066 16.7128 17.4974 17.7727 14.7117 18.0847C15.1658 18.4796 15.5577 19.2278 15.5577 20.4128C15.5577 22.0964 15.5372 23.4477 15.5372 23.8633C15.5372 24.1959 15.7643 24.5911 16.3832 24.4663C21.3352 22.8031 24.9048 18.1054 24.9048 12.5554C24.9253 5.61224 19.3337 0 12.4628 0Z" fill="#BDBDBD"/>
</g>
<defs>
<clipPath id="clip0_194_23">
<rect width="25" height="24.4898" fill="white"/>
</clipPath>
</defs>
</svg>
